<?xml version="1.0" encoding="UTF-8" standalone="no"?>
<svg
   xmlns:dc="http://purl.org/dc/elements/1.1/"
   xmlns:cc="http://creativecommons.org/ns#"
   xmlns:rdf="http://www.w3.org/1999/02/22-rdf-syntax-ns#"
   xmlns:svg="http://www.w3.org/2000/svg"
   xmlns="http://www.w3.org/2000/svg"
   xmlns:xlink="http://www.w3.org/1999/xlink"
   xmlns:sodipodi="http://sodipodi.sourceforge.net/DTD/sodipodi-0.dtd"
   xmlns:inkscape="http://www.inkscape.org/namespaces/inkscape"
   width="48"
   height="48"
   viewBox="0 0 12.7 12.7"
   version="1.1"
   id="svg948"
   inkscape:version="1.0.1 (3bc2e813f5, 2020-09-07)"
   sodipodi:docname="Icon.svg">
  <defs
     id="defs942">
    <linearGradient
       inkscape:collect="always"
       id="Smooth_Gradient">
      <stop
         style="stop-color:#667eea;stop-opacity:1"
         offset="0"
         id="stop1701" />
      <stop
         style="stop-color:#764ba2;stop-opacity:1"
         offset="1"
         id="stop1703" />
    </linearGradient>
    <linearGradient
       inkscape:collect="always"
       xlink:href="#Smooth_Gradient"
       id="linearGradient1707"
       x1="2.3832042"
       y1="10.981153"
       x2="11.602838"
       y2="1.3472663"
       gradientUnits="userSpaceOnUse" />
  </defs>
  <sodipodi:namedview
     id="base"
     pagecolor="#ffffff"
     bordercolor="#666666"
     borderopacity="1.0"
     inkscape:pageopacity="0.0"
     inkscape:pageshadow="2"
     inkscape:zoom="1.979899"
     inkscape:cx="-133.92607"
     inkscape:cy="1.1104955"
     inkscape:document-units="px"
     inkscape:current-layer="layer1"
     inkscape:document-rotation="0"
     showgrid="false"
     units="px"
     inkscape:window-width="1920"
     inkscape:window-height="1025"
     inkscape:window-x="0"
     inkscape:window-y="27"
     inkscape:window-maximized="1"
     showguides="true"
     inkscape:guide-bbox="true"
     inkscape:snap-bbox="true"
     inkscape:object-paths="true"
     inkscape:snap-global="true"
     inkscape:snap-page="true"
     inkscape:snap-text-baseline="true"
     inkscape:snap-center="true"
     inkscape:snap-object-midpoints="true"
     inkscape:snap-midpoints="true"
     inkscape:snap-smooth-nodes="true"
     inkscape:snap-intersection-paths="true"
     inkscape:snap-bbox-midpoints="true"
     inkscape:snap-bbox-edge-midpoints="true"
     inkscape:bbox-nodes="true"
     inkscape:bbox-paths="true" />
  <metadata
     id="metadata945">
    <rdf:RDF>
      <cc:Work
         rdf:about="">
        <dc:format>image/svg+xml</dc:format>
        <dc:type
           rdf:resource="http://purl.org/dc/dcmitype/StillImage" />
        <dc:title />
      </cc:Work>
    </rdf:RDF>
  </metadata>
  <g
     inkscape:label="Layer 1"
     inkscape:groupmode="layer"
     id="layer1">
    <rect
       style="fill:url(#linearGradient1707);fill-opacity:1;stroke:none;stroke-width:0.264583;stroke-miterlimit:4;stroke-dasharray:none;stroke-opacity:1"
       id="rect1687"
       width="12.7"
       height="12.7"
       x="0"
       y="0"
       ry="2.119808" />
  </g>
  <g
     inkscape:groupmode="layer"
     id="layer2"
     inkscape:label="Layer 2"
     style="display:inline;mix-blend-mode:normal">
    <g
       id="g1725"
       transform="translate(-0.46838984)">
      <g
         id="g1683"
         transform="matrix(0.923554,0,0,0.923554,0.96737793,0.11989835)"
         style="fill:#ffffff">
        <g
           aria-label="{Py}"
           id="text1531"
           style="font-size:6.55073px;line-height:1.25;font-family:Inter;-inkscape-font-specification:Inter;fill:#ffffff;stroke-width:0.163769">
          <path
             d="M 2.1157826,8.9979578 V 8.542012 c -0.5396908,0 -0.7071811,-0.2465828 -0.7071811,-0.7909262 V 7.2858351 6.8205844 c 0,-0.3791794 -0.1186389,-0.6606561 -0.65135098,-0.7653375 V 5.9854593 C 1.2899626,5.8807779 1.4086015,5.5993012 1.4086015,5.2201219 V 4.2896204 c 0,-0.5443433 0.1674903,-0.7909262 0.7071811,-0.7909262 V 3.0427485 c -0.9118914,0 -1.20965184,0.3908106 -1.20965184,1.2468719 v 0.7444012 c 0,0.5094495 -0.17912153,0.7071811 -0.69787609,0.7071811 v 0.5583008 c 0.51875456,0 0.69787609,0.1977316 0.69787609,0.7071811 v 0.7444012 c 0,0.8560613 0.29776044,1.246872 1.20965184,1.246872 z"
             style="font-weight:normal;fill:#3cb1c3;fill-opacity:1;stroke-width:0.163769"
             id="path1569"
             sodipodi:nodetypes="ccscsccssccssccssc" />
          <path
             d="M 2.9160081,8.0302362 H 3.492919 V 6.2901985 h 1.0421616 c 1.109623,0 1.6097676,-0.6746135 1.6097676,-1.5167173 0,-0.8421039 -0.5001446,-1.5074124 -1.6190726,-1.5074124 H 2.9160081 Z M 3.492919,5.7784227 V 3.7778446 h 1.0142466 c 0.7746425,0 1.0700767,0.4233782 1.0700767,0.9956366 0,0.5722584 -0.2954342,1.0049415 -1.0607717,1.0049415 z"
             style="font-weight:normal;fill:#ffffff;stroke-width:0.163769"
             id="path1571" />
          <path
             d="m 10.554861,3.0427485 v 0.4559457 c 0.53969,0 0.707181,0.2465829 0.707181,0.7909262 v 0.9305015 c 0,0.3791793 0.118639,0.660656 0.651351,0.7653374 v 0.069788 c -0.532712,0.104681 -0.651351,0.3861577 -0.651351,0.7653371 v 0.9305014 c 0,0.5443434 -0.167491,0.7909262 -0.707181,0.7909262 v 0.4559458 c 0.911891,0 1.209651,-0.3908107 1.209651,-1.246872 V 7.0066846 c 0,-0.5094495 0.179122,-0.7071811 0.697877,-0.7071811 V 5.7412027 c -0.518755,0 -0.697877,-0.1977316 -0.697877,-0.7071811 V 4.2896204 c 0,-0.8560613 -0.29776,-1.2468719 -1.209651,-1.2468719 z"
             style="font-weight:normal;fill:#3cb1c3;fill-opacity:1;stroke-width:0.163769"
             id="path1575"
             sodipodi:nodetypes="ccssccssccssccssc" />
        </g>
        <g
           id="g1563"
           transform="matrix(0.2380667,-0.54839786,0.54839786,0.2380667,0.37313782,18.057609)"
           style="fill:none;stroke:#ffffff;stroke-opacity:1">
          <path
             id="path1539"
             style="fill:none;stroke:#ffffff;stroke-width:0.999999;stroke-miterlimit:4;stroke-dasharray:none;stroke-opacity:1"
             inkscape:transform-center-x="0.30244662"
             d="m 55.419922,3.1542969 -6.859375,3.9609375 6.859375,3.9589846 H 79.873047 V 3.1542969 Z"
             transform="scale(0.26458333)" />
          <path
             id="rect1547"
             style="fill:none;stroke:#ffffff;stroke-width:0.264583;stroke-miterlimit:4;stroke-dasharray:none;stroke-opacity:1"
             d="m 21.133011,0.83463037 h 1.242076 c 0.325596,0 0.587718,0.26212263 0.587718,0.58771883 v 0.9199727 c 0,0.3255962 -0.262122,0.5877188 -0.587718,0.5877188 h -1.242076 z"
             sodipodi:nodetypes="csssscc" />
          <path
             style="fill:none;stroke:#ffffff;stroke-width:0.264583px;stroke-linecap:butt;stroke-linejoin:miter;stroke-opacity:1"
             d="m 15.399809,1.5576998 h 4.439322"
             id="path1555" />
          <path
             style="fill:none;stroke:#ffffff;stroke-width:0.264583;stroke-linecap:butt;stroke-linejoin:miter;stroke-miterlimit:4;stroke-dasharray:none;stroke-opacity:1"
             d="M 14.663188,2.9300409 V 0.83457438"
             id="path1557" />
        </g>
        <text
           xml:space="preserve"
           style="font-size:5.92221px;line-height:1.25;font-family:Inter;-inkscape-font-specification:Inter;fill:#ffffff;stroke-width:0.148055"
           x="7.1258464"
           y="7.8290882"
           id="text1670"><tspan
             sodipodi:role="line"
             id="tspan1668"
             x="7.1258464"
             y="7.8290882"
             style="fill:#ffffff;stroke-width:0.148055">y</tspan></text>
      </g>
    </g>
  </g>
</svg>
