<svg width="91" height="113.75" xmlns="http://www.w3.org/2000/svg">

 <g>
  <title>background</title>
  <rect fill="none" id="canvas_background" height="602" width="802" y="-1" x="-1"/>
 </g>
 <g>
  <title>Layer 1</title>
  <g id="svg_1">
   <g id="svg_2">
    <path fill="#ffffff" id="svg_3" d="m66.108,22.521l-43.232,43.231c-0.822,0.822 -0.822,2.154 0,2.977c0.41,0.412 0.949,0.615 1.486,0.615c0.539,0 1.078,-0.203 1.488,-0.615l43.234,-43.233c0.822,-0.822 0.822,-2.152 0,-2.975s-2.153,-0.823 -2.976,0z"/>
    <path fill="#ffffff" id="svg_4" d="m12.78,36.251c0.842,-0.113 5.861,0.057 10.52,0.297l7.848,7.849l-21.544,21.541c-0.004,0.004 -0.01,0.006 -0.012,0.008c-0.004,0.004 -0.004,0.008 -0.008,0.012l-3.654,3.654c-1.758,1.756 -2.725,4.092 -2.727,6.578c0,2.482 0.969,4.818 2.725,6.574l2.908,2.914c1.756,1.754 4.092,2.723 6.576,2.723c2.488,0 4.824,-0.969 6.58,-2.727l3.662,-3.662c0.002,-0.002 0.006,-0.002 0.008,-0.004c0.002,-0.004 0.002,-0.006 0.004,-0.008l21.545,-21.545l7.424,7.426c0.24,4.658 0.41,9.676 0.303,10.479c-0.256,1.279 -0.521,2.604 12.434,12.178c0.361,0.27 0.801,0.414 1.252,0.414c0,0 0,0 0.002,0l4.646,-0.004c0.756,0 1.455,-0.406 1.828,-1.064c0.373,-0.656 0.367,-1.463 -0.02,-2.113l-4.803,-8.088c-0.182,-0.59 -0.826,-3.449 2.656,-5.902c3.947,-2.777 5.684,-1.369 7.002,0.166c1.164,1.359 4.148,6.385 5.199,8.205c0.359,0.625 1.016,1.021 1.738,1.051c0.725,0.029 1.404,-0.313 1.814,-0.908c0.18,-0.264 4.355,-6.52 0.229,-17.191c-3.199,-8.281 -7.484,-9.451 -8.121,-9.586l-11.955,-1.691l-7.496,-7.5l22.439,-22.438c0.002,-0.002 0.002,-0.004 0.004,-0.006c0.172,-0.17 0.299,-0.379 0.402,-0.602c0.027,-0.057 0.047,-0.111 0.068,-0.172c0.023,-0.063 0.059,-0.119 0.076,-0.186l4.432,-17.299c0.184,-0.717 -0.021,-1.475 -0.537,-2c-0.518,-0.527 -1.273,-0.742 -1.99,-0.57l-17.521,4.211c-0.229,0.057 -0.432,0.156 -0.623,0.277c-0.094,0.053 -0.189,0.123 -0.283,0.209c-0.023,0.02 -0.051,0.035 -0.072,0.057c-0.006,0.006 -0.012,0.01 -0.018,0.016l-22.44,22.441l-7.922,-7.922l-1.721,-12.115c-0.105,-0.479 -1.277,-4.762 -9.561,-7.965c-10.669,-4.123 -16.925,0.05 -17.186,0.232c-0.596,0.408 -0.938,1.094 -0.909,1.815c0.029,0.723 0.426,1.379 1.051,1.74c1.82,1.051 6.842,4.031 8.203,5.197c1.539,1.318 2.947,3.055 0.166,7.002c-2.441,3.469 -5.264,2.852 -5.904,2.654l-8.086,-4.803c-0.652,-0.385 -1.459,-0.393 -2.115,-0.018c-0.658,0.373 -1.063,1.072 -1.063,1.83l0,4.648c0,0.449 0.143,0.889 0.41,1.25c9.575,12.953 10.899,12.687 12.137,12.441zm-0.967,46.452l-2.908,-2.912c-0.961,-0.965 -1.492,-2.242 -1.492,-3.602c0,-1.361 0.531,-2.639 1.494,-3.602l2.176,-2.176l10.113,10.109l-2.178,2.178c-1.923,1.925 -5.285,1.925 -7.205,0.005zm54.549,-25.408c0.322,0.324 0.742,0.533 1.193,0.598l12.488,1.76c0.023,0.006 2.654,1.027 4.949,6.967c1.568,4.057 1.715,7.236 1.428,9.465c-1.16,-1.889 -2.473,-3.928 -3.289,-4.879c-4.313,-5.023 -9.242,-3.244 -12.623,-0.865c-5.266,3.707 -4.98,8.836 -4.096,11.029c0.041,0.1 0.088,0.195 0.141,0.285l3.021,5.086l-0.258,0.002c-4.254,-3.174 -8.979,-6.984 -10.176,-8.383c0.107,-2.338 -0.158,-8.02 -0.346,-11.508c-0.027,-0.52 -0.246,-1.008 -0.613,-1.375l-7.994,-7.994l2.541,-2.543l7.689,7.691c0.41,0.41 0.949,0.617 1.488,0.617c0.537,0 1.076,-0.207 1.486,-0.617c0.822,-0.822 0.822,-2.152 0,-2.977l-7.689,-7.689l2.664,-2.664l7.996,7.994zm-9.48,-12.457c0,0 0,0 -0.002,0c0,0 0,0 0,0.002l-11.154,11.15c0,0 -0.002,0.002 -0.004,0.002c0,0.002 0,0.002 -0.002,0.004l-21.547,21.547l-10.113,-10.107l27.049,-27.05c0.008,-0.008 0.018,-0.01 0.023,-0.016c0.008,-0.008 0.01,-0.018 0.016,-0.025l28.061,-28.057l10.111,10.111l-22.438,22.439zm26.941,-36.876l-2.648,10.34l-7.824,-7.822l10.472,-2.518zm-79.381,13.648l5.084,3.018c0.09,0.053 0.186,0.1 0.283,0.143c2.195,0.887 7.324,1.172 11.031,-4.098c2.383,-3.377 4.162,-8.311 -0.865,-12.621c-0.947,-0.813 -2.971,-2.115 -4.852,-3.27c2.242,-0.285 5.422,-0.146 9.436,1.406c5.537,2.143 6.785,4.553 6.967,4.977l1.764,12.465c0.063,0.451 0.271,0.869 0.596,1.193l8.418,8.416l-2.664,2.664l-8.018,-8.021c-0.822,-0.822 -2.154,-0.82 -2.977,0c-0.822,0.824 -0.822,2.154 0,2.977l8.02,8.02l-2.543,2.543l-8.418,-8.418c-0.367,-0.367 -0.855,-0.586 -1.375,-0.613c-3.488,-0.189 -9.172,-0.459 -11.51,-0.352c-1.396,-1.195 -5.207,-5.918 -8.377,-10.172l0,-0.257z"/>
   </g>
  </g>
 </g>
</svg>