<svg width="100" height="125" xmlns="http://www.w3.org/2000/svg">

 <g>
  <title>background</title>
  <rect fill="none" id="canvas_background" height="602" width="802" y="-1" x="-1"/>
 </g>
 <g>
  <title>Layer 1</title>
  <path fill="#ffffff" id="svg_1" d="m7.1,80.2l54.6,0c1,0 1.8,-0.8 1.8,-1.8s-0.8,-1.8 -1.8,-1.8l-54.6,0c-1.4,0 -2.6,-1.1 -2.6,-2.6l0,-42.4l77.5,0l0,12.9c0,1 0.8,1.8 1.8,1.8s1.8,-0.8 1.8,-1.8l0,-26.5c0,-3.3 -2.7,-6.1 -6.1,-6.1l-72.4,0c-3.4,0 -6.1,2.7 -6.1,6.1l0,56.2c0,3.3 2.7,6 6.1,6zm0,-64.8l72.4,0c1.4,0 2.6,1.1 2.6,2.6l0,10.2l-77.6,0l0,-10.2c0,-1.4 1.2,-2.6 2.6,-2.6zm2.5,7.6c-0.3,-0.3 -0.5,-0.8 -0.5,-1.2c0,-0.5 0.2,-0.9 0.5,-1.2c0.7,-0.7 1.8,-0.6 2.5,0c0.3,0.3 0.5,0.8 0.5,1.2c0,0.5 -0.2,0.9 -0.5,1.2c-0.3,0.3 -0.8,0.5 -1.2,0.5s-0.9,-0.2 -1.3,-0.5zm8.1,0c-0.3,-0.3 -0.5,-0.8 -0.5,-1.2s0.2,-0.9 0.5,-1.2c0.7,-0.6 1.8,-0.6 2.5,0c0.3,0.3 0.5,0.8 0.5,1.2s-0.2,0.9 -0.5,1.2c-0.3,0.3 -0.8,0.5 -1.2,0.5c-0.5,0 -0.9,-0.2 -1.3,-0.5zm8.1,0c-0.3,-0.3 -0.5,-0.8 -0.5,-1.2c0,-0.5 0.2,-0.9 0.5,-1.2c0.6,-0.6 1.8,-0.6 2.5,0c0.3,0.3 0.5,0.8 0.5,1.2c0,0.5 -0.2,0.9 -0.5,1.2c-0.3,0.3 -0.8,0.5 -1.2,0.5s-0.9,-0.2 -1.3,-0.5zm47,44.2c-2.3,0 -4.2,1.9 -4.2,4.2l0,12.6c0,2.3 1.9,4.2 4.2,4.2l22.1,0c2.3,0 4.2,-1.9 4.2,-4.2l0,-12.7c0,-2.3 -1.9,-4.2 -4.2,-4.2l-0.2,0l0,-5.2c0,-5.9 -4.8,-10.8 -10.8,-10.8c-4.5,0 -8.4,2.7 -10.1,6.9c-0.4,0.9 0.1,1.9 1,2.3c0.9,0.4 1.9,-0.1 2.3,-1c1.1,-2.8 3.8,-4.6 6.8,-4.6c4,0 7.3,3.3 7.3,7.3l0,5.2l-18.4,0zm22.7,4.1l0,12.6c0,0.4 -0.3,0.7 -0.7,0.7l-22,0c-0.4,0 -0.7,-0.3 -0.7,-0.7l0,-12.6c0,-0.4 0.3,-0.7 0.7,-0.7l22.1,0c0.3,0.1 0.6,0.4 0.6,0.7z"/>
 </g>
</svg>