<?xml version="1.0" encoding="UTF-8" standalone="no"?>
<svg
   width="128"
   height="128"
   viewBox="0 0 128 128"
   fill="none"
   version="1.1"
   id="svg23"
   sodipodi:docname="quark.svg"
   inkscape:version="1.2.2 (b0a8486541, 2022-12-01)"
   xmlns:inkscape="http://www.inkscape.org/namespaces/inkscape"
   xmlns:sodipodi="http://sodipodi.sourceforge.net/DTD/sodipodi-0.dtd"
   xmlns="http://www.w3.org/2000/svg"
   xmlns:svg="http://www.w3.org/2000/svg">
  <sodipodi:namedview
     id="namedview25"
     pagecolor="#ffffff"
     bordercolor="#000000"
     borderopacity="0.25"
     inkscape:showpageshadow="2"
     inkscape:pageopacity="0.0"
     inkscape:pagecheckerboard="0"
     inkscape:deskcolor="#d1d1d1"
     showgrid="false"
     inkscape:zoom="2.8652344"
     inkscape:cx="60.902522"
     inkscape:cy="55.318337"
     inkscape:window-width="1440"
     inkscape:window-height="839"
     inkscape:window-x="0"
     inkscape:window-y="30"
     inkscape:window-maximized="1"
     inkscape:current-layer="svg23" />
  <rect
     x="14"
     y="14"
     width="100"
     height="100"
     rx="11.9403"
     fill="black"
     id="rect2" />
  <circle
     cx="64"
     cy="64"
     r="41.0448"
     fill="url(#paint0_linear_104_175)"
     id="circle4" />
  <path
     d="M64 45.3433L50.428 21.8358H77.572L64 45.3433Z"
     fill="black"
     id="path6" />
  <path
     d="M64 82.6567L50.428 106.164H77.572L64 82.6567Z"
     fill="black"
     id="path8" />
  <g
     id="g193"
     transform="translate(0,2.2388)">
    <g
       id="g187">
      <path
         d="M 40.8657,61.7612 22.9552,51.4206 v 20.6812 z"
         fill="#000000"
         id="path10" />
      <path
         d="M 87.1343,61.7612 105.045,51.4206 v 20.6812 z"
         fill="#000000"
         id="path12" />
    </g>
    <path
       d="m 50.996,68.0197 v -3.9211 h -0.0621 c -0.0954,0.2035 -0.2305,0.4054 -0.4054,0.6058 -0.1717,0.1972 -0.3959,0.3609 -0.6726,0.4913 -0.2735,0.1304 -0.6074,0.1956 -1.0018,0.1956 -0.5565,0 -1.0605,-0.1431 -1.5121,-0.4293 -0.4484,-0.2894 -0.8046,-0.714 -1.0685,-1.2737 -0.2608,-0.5628 -0.3912,-1.2529 -0.3912,-2.0702 0,-0.8396 0.1352,-1.5376 0.4055,-2.0941 0.2703,-0.5597 0.6297,-0.9779 1.0781,-1.2546 0.4515,-0.2798 0.946,-0.4198 1.4835,-0.4198 0.4102,0 0.7521,0.07 1.0256,0.2099 0.2766,0.1368 0.4992,0.3085 0.6678,0.5152 0.1717,0.2035 0.3021,0.4039 0.3911,0.6011 h 0.0859 V 57.945 h 2.0035 v 10.0747 z m -1.4979,-4.2455 c 0.3276,0 0.6042,-0.089 0.83,-0.2671 0.229,-0.1813 0.4039,-0.4341 0.5248,-0.7585 0.124,-0.3244 0.186,-0.7044 0.186,-1.1401 0,-0.4356 -0.0604,-0.8141 -0.1813,-1.1353 -0.1208,-0.3212 -0.2957,-0.5692 -0.5247,-0.7441 -0.229,-0.1749 -0.5072,-0.2624 -0.8348,-0.2624 -0.3339,0 -0.6153,0.0907 -0.8443,0.2719 -0.229,0.1813 -0.4023,0.4325 -0.52,0.7537 -0.1176,0.3212 -0.1764,0.6933 -0.1764,1.1162 0,0.4262 0.0588,0.803 0.1764,1.1306 0.1209,0.3244 0.2942,0.5788 0.52,0.7632 0.229,0.1813 0.5104,0.2719 0.8443,0.2719 z m 9.8552,-1.6219 V 57.945 h 2.0321 v 7.327 h -1.951 v -1.3308 h -0.0763 c -0.1654,0.4293 -0.4405,0.7743 -0.8252,1.0351 -0.3817,0.2608 -0.8476,0.3911 -1.3977,0.3911 -0.4898,0 -0.9207,-0.1113 -1.2927,-0.3339 -0.3721,-0.2226 -0.6631,-0.539 -0.873,-0.9492 -0.2067,-0.4103 -0.3116,-0.9016 -0.3148,-1.474 V 57.945 h 2.0321 v 4.3027 c 0.0032,0.4325 0.1192,0.7744 0.3482,1.0256 0.229,0.2513 0.5359,0.3769 0.9207,0.3769 0.2448,0 0.4738,-0.0557 0.6869,-0.167 0.213,-0.1145 0.3848,-0.283 0.5151,-0.5056 0.1336,-0.2226 0.1988,-0.4977 0.1956,-0.8253 z m 5.7469,3.2581 c -0.4675,0 -0.8841,-0.0811 -1.2498,-0.2433 -0.3657,-0.1654 -0.6551,-0.4086 -0.8682,-0.7298 -0.2098,-0.3244 -0.3148,-0.7283 -0.3148,-1.2117 0,-0.407 0.0747,-0.7489 0.2242,-1.0256 0.1495,-0.2766 0.353,-0.4992 0.6106,-0.6678 0.2576,-0.1685 0.5501,-0.2957 0.8777,-0.3816 0.3307,-0.0859 0.6774,-0.1463 1.0399,-0.1813 0.4261,-0.0445 0.7696,-0.0858 1.0304,-0.124 0.2607,-0.0413 0.4499,-0.1017 0.5676,-0.1813 0.1177,-0.0795 0.1765,-0.1971 0.1765,-0.3529 v -0.0287 c 0,-0.3021 -0.0954,-0.5358 -0.2862,-0.7012 -0.1876,-0.1653 -0.4548,-0.248 -0.8014,-0.248 -0.3657,0 -0.6567,0.0811 -0.8729,0.2432 -0.2163,0.1591 -0.3594,0.3594 -0.4294,0.6011 L 62.925,60.0248 c 0.0954,-0.4452 0.283,-0.83 0.5629,-1.1543 0.2798,-0.3276 0.6408,-0.5788 1.0828,-0.7537 0.4452,-0.1781 0.9604,-0.2672 1.5455,-0.2672 0.4071,0 0.7967,0.0477 1.1687,0.1431 0.3753,0.0954 0.7076,0.2433 0.997,0.4437 0.2926,0.2003 0.5231,0.4579 0.6917,0.7727 0.1685,0.3117 0.2528,0.6854 0.2528,1.121 V 65.272 H 67.2993 V 64.256 H 67.242 c -0.1177,0.229 -0.2751,0.4309 -0.4722,0.6058 -0.1972,0.1717 -0.4341,0.3069 -0.7108,0.4055 -0.2767,0.0954 -0.5963,0.1431 -0.9588,0.1431 z m 0.582,-1.4025 c 0.2989,0 0.5628,-0.0588 0.7918,-0.1764 0.229,-0.1209 0.4087,-0.2831 0.539,-0.4866 0.1304,-0.2035 0.1956,-0.4341 0.1956,-0.6917 v -0.7775 c -0.0636,0.0413 -0.151,0.0795 -0.2623,0.1145 -0.1082,0.0318 -0.2306,0.062 -0.3673,0.0906 -0.1368,0.0254 -0.2735,0.0493 -0.4103,0.0715 -0.1367,0.0191 -0.2607,0.0366 -0.3721,0.0525 -0.2385,0.035 -0.4468,0.0907 -0.6248,0.167 -0.1781,0.0763 -0.3165,0.1797 -0.4151,0.31 -0.0985,0.1272 -0.1478,0.2862 -0.1478,0.4771 0,0.2766 0.1001,0.4881 0.3005,0.6344 0.2035,0.1431 0.4611,0.2146 0.7728,0.2146 z m 5.1208,1.2641 v -7.327 h 1.97 v 1.2785 h 0.0764 c 0.1335,-0.4548 0.3577,-0.7983 0.6726,-1.0304 0.3148,-0.2353 0.6773,-0.353 1.0876,-0.353 0.1017,0 0.2114,0.0064 0.3291,0.0191 0.1177,0.0127 0.221,0.0302 0.3101,0.0525 v 1.8031 c -0.0954,-0.0286 -0.2274,-0.0541 -0.396,-0.0763 -0.1685,-0.0223 -0.3227,-0.0334 -0.4627,-0.0334 -0.2989,0 -0.566,0.0652 -0.8014,0.1955 -0.2321,0.1273 -0.4166,0.3053 -0.5533,0.5343 -0.1336,0.229 -0.2003,0.4929 -0.2003,0.7919 v 4.1452 z m 7.3377,-2.1084 0.0048,-2.4375 h 0.2957 l 2.3469,-2.7811 h 2.3327 l -3.1531,3.6826 h -0.4818 z m -1.8413,2.1084 v -9.7693 h 2.0321 v 9.7693 z m 4.5794,0 -2.1561,-3.1912 1.3547,-1.4358 3.1817,4.627 z"
       fill="#ffffff"
       id="path14" />
  </g>
  <defs
     id="defs21">
    <linearGradient
       id="paint0_linear_104_175"
       x1="36.3881"
       y1="35.6418"
       x2="86.3881"
       y2="96.0896"
       gradientUnits="userSpaceOnUse">
      <stop
         stop-color="#2450B7"
         id="stop16" />
      <stop
         offset="1"
         stop-color="#AB67DD"
         id="stop18" />
    </linearGradient>
  </defs>
</svg>
