<svg width="128" height="128" viewBox="0 0 128 128" fill="none" xmlns="http://www.w3.org/2000/svg">
<rect x="14" y="14" width="100" height="100" rx="11.9403" fill="black"/>
<circle cx="64" cy="64" r="41.0448" fill="url(#paint0_linear_104_175)"/>
<path d="M64 45.3433L50.428 21.8358H77.572L64 45.3433Z" fill="black"/>
<path d="M64 82.6567L50.428 106.164H77.572L64 82.6567Z" fill="black"/>
<path d="M40.8657 61.7612L22.9552 51.4206L22.9552 72.1018L40.8657 61.7612Z" fill="black"/>
<path d="M87.1343 61.7612L105.045 51.4206V72.1018L87.1343 61.7612Z" fill="black"/>
<path d="M50.996 71.5387V67.6176H50.9339C50.8385 67.8211 50.7034 68.023 50.5285 68.2234C50.3568 68.4206 50.1326 68.5843 49.8559 68.7147C49.5824 68.8451 49.2485 68.9103 48.8541 68.9103C48.2976 68.9103 47.7936 68.7672 47.342 68.481C46.8936 68.1916 46.5374 67.767 46.2735 67.2073C46.0127 66.6445 45.8823 65.9544 45.8823 65.1371C45.8823 64.2975 46.0175 63.5995 46.2878 63.043C46.5581 62.4833 46.9175 62.0651 47.3659 61.7884C47.8174 61.5086 48.3119 61.3686 48.8494 61.3686C49.2596 61.3686 49.6015 61.4386 49.875 61.5785C50.1516 61.7153 50.3742 61.887 50.5428 62.0937C50.7145 62.2972 50.8449 62.4976 50.9339 62.6948H51.0198V61.464H53.0233V71.5387H50.996ZM49.4981 67.2932C49.8257 67.2932 50.1023 67.2042 50.3281 67.0261C50.5571 66.8448 50.732 66.592 50.8529 66.2676C50.9769 65.9432 51.0389 65.5632 51.0389 65.1275C51.0389 64.6919 50.9785 64.3134 50.8576 63.9922C50.7368 63.671 50.5619 63.423 50.3329 63.2481C50.1039 63.0732 49.8257 62.9857 49.4981 62.9857C49.1642 62.9857 48.8828 63.0764 48.6538 63.2576C48.4248 63.4389 48.2515 63.6901 48.1338 64.0113C48.0162 64.3325 47.9574 64.7046 47.9574 65.1275C47.9574 65.5537 48.0162 65.9305 48.1338 66.2581C48.2547 66.5825 48.428 66.8369 48.6538 67.0213C48.8828 67.2026 49.1642 67.2932 49.4981 67.2932ZM59.3533 65.6713V61.464H61.3854V68.791H59.4344V67.4602H59.3581C59.1927 67.8895 58.9176 68.2345 58.5329 68.4953C58.1512 68.7561 57.6853 68.8864 57.1352 68.8864C56.6454 68.8864 56.2145 68.7751 55.8425 68.5525C55.4704 68.3299 55.1794 68.0135 54.9695 67.6033C54.7628 67.193 54.6579 66.7017 54.6547 66.1293V61.464H56.6868V65.7667C56.69 66.1992 56.806 66.5411 57.035 66.7923C57.264 67.0436 57.5709 67.1692 57.9557 67.1692C58.2005 67.1692 58.4295 67.1135 58.6426 67.0022C58.8556 66.8877 59.0274 66.7192 59.1577 66.4966C59.2913 66.274 59.3565 65.9989 59.3533 65.6713ZM65.1002 68.9294C64.6327 68.9294 64.2161 68.8483 63.8504 68.6861C63.4847 68.5207 63.1953 68.2775 62.9822 67.9563C62.7724 67.6319 62.6674 67.228 62.6674 66.7446C62.6674 66.3376 62.7421 65.9957 62.8916 65.719C63.0411 65.4424 63.2446 65.2198 63.5022 65.0512C63.7598 64.8827 64.0523 64.7555 64.3799 64.6696C64.7106 64.5837 65.0573 64.5233 65.4198 64.4883C65.8459 64.4438 66.1894 64.4025 66.4502 64.3643C66.7109 64.323 66.9001 64.2626 67.0178 64.183C67.1355 64.1035 67.1943 63.9859 67.1943 63.8301V63.8014C67.1943 63.4993 67.0989 63.2656 66.9081 63.1002C66.7205 62.9349 66.4533 62.8522 66.1067 62.8522C65.741 62.8522 65.45 62.9333 65.2338 63.0954C65.0175 63.2545 64.8744 63.4548 64.8044 63.6965L62.925 63.5438C63.0204 63.0986 63.208 62.7138 63.4879 62.3895C63.7677 62.0619 64.1287 61.8107 64.5707 61.6358C65.0159 61.4577 65.5311 61.3686 66.1162 61.3686C66.5233 61.3686 66.9129 61.4163 67.2849 61.5117C67.6602 61.6071 67.9925 61.755 68.2819 61.9554C68.5745 62.1557 68.805 62.4133 68.9736 62.7281C69.1421 63.0398 69.2264 63.4135 69.2264 63.8491V68.791H67.2993V67.775H67.242C67.1243 68.004 66.9669 68.2059 66.7698 68.3808C66.5726 68.5525 66.3357 68.6877 66.059 68.7863C65.7823 68.8817 65.4627 68.9294 65.1002 68.9294ZM65.6822 67.5269C65.9811 67.5269 66.245 67.4681 66.474 67.3505C66.703 67.2296 66.8827 67.0674 67.013 66.8639C67.1434 66.6604 67.2086 66.4298 67.2086 66.1722V65.3947C67.145 65.436 67.0576 65.4742 66.9463 65.5092C66.8381 65.541 66.7157 65.5712 66.579 65.5998C66.4422 65.6252 66.3055 65.6491 66.1687 65.6713C66.032 65.6904 65.908 65.7079 65.7966 65.7238C65.5581 65.7588 65.3498 65.8145 65.1718 65.8908C64.9937 65.9671 64.8553 66.0705 64.7567 66.2008C64.6582 66.328 64.6089 66.487 64.6089 66.6779C64.6089 66.9545 64.709 67.166 64.9094 67.3123C65.1129 67.4554 65.3705 67.5269 65.6822 67.5269ZM70.803 68.791V61.464H72.773V62.7425H72.8494C72.9829 62.2877 73.2071 61.9442 73.522 61.7121C73.8368 61.4768 74.1993 61.3591 74.6096 61.3591C74.7113 61.3591 74.821 61.3655 74.9387 61.3782C75.0564 61.3909 75.1597 61.4084 75.2488 61.4307V63.2338C75.1534 63.2052 75.0214 63.1797 74.8528 63.1575C74.6843 63.1352 74.5301 63.1241 74.3901 63.1241C74.0912 63.1241 73.8241 63.1893 73.5887 63.3196C73.3566 63.4469 73.1721 63.6249 73.0354 63.8539C72.9018 64.0829 72.8351 64.3468 72.8351 64.6458V68.791H70.803ZM78.1407 66.6826L78.1455 64.2451H78.4412L80.7881 61.464H83.1208L79.9677 65.1466H79.4859L78.1407 66.6826ZM76.2994 68.791V59.0217H78.3315V68.791H76.2994ZM80.8788 68.791L78.7227 65.5998L80.0774 64.164L83.2591 68.791H80.8788Z" fill="white"/>
<defs>
<linearGradient id="paint0_linear_104_175" x1="36.3881" y1="35.6418" x2="86.3881" y2="96.0896" gradientUnits="userSpaceOnUse">
<stop stop-color="#2450B7"/>
<stop offset="1" stop-color="#AB67DD"/>
</linearGradient>
</defs>
</svg>
